PathFileType	4	(X/Y/Z)	C:\Users\Basilio\Documents\Thesis Gigler\squatting_fais\c3dfiles\040\SJ_pre2\markers_experimental.trc
DataRate	CameraRate	NumFrames	NumMarkers	Units	OrigDataRate	OrigDataStartFrame	OrigNumFrames
200.000000	200.000000	4	64	mm	200.000000	1162	1328
Frame#	Time	FHD			LBHD			RBHD			C7			T10			CLAV			LSHO			LUUPA			LMUPA			LDUPA			LLEP			LMEP			LRAD			LUL			LRFIN			RSHO			RUPA1			RMUPA			RDUPA			RLEP			RMEP			RRAD			RUL			RUFIN			RASI			USACR			LSACR			RSACR			LTHI1			LTHI2			LTHI3			LTHI4			LLFC			LMFC			LTIB1			LTIB2			LTIB3			LTIB4			LLMAL			LMMAL			LHEE			LMT1			LMT2			LMT5			RTHI			RTHI2			RTHI3			RTHI4			RLFC			RMFC			RTIB1			RTIB2			RTIB3			RTIB4			RLMAL			RMMAL			RHEE			RMT1			RMT2			RMT5			LASI			*61			*62			*63			
		X1	Y1	Z1	X2	Y2	Z2	X3	Y3	Z3	X4	Y4	Z4	X5	Y5	Z5	X6	Y6	Z6	X7	Y7	Z7	X8	Y8	Z8	X9	Y9	Z9	X10	Y10	Z10	X11	Y11	Z11	X12	Y12	Z12	X13	Y13	Z13	X14	Y14	Z14	X15	Y15	Z15	X16	Y16	Z16	X17	Y17	Z17	X18	Y18	Z18	X19	Y19	Z19	X20	Y20	Z20	X21	Y21	Z21	X22	Y22	Z22	X23	Y23	Z23	X24	Y24	Z24	X25	Y25	Z25	X26	Y26	Z26	X27	Y27	Z27	X28	Y28	Z28	X29	Y29	Z29	X30	Y30	Z30	X31	Y31	Z31	X32	Y32	Z32	X33	Y33	Z33	X34	Y34	Z34	X35	Y35	Z35	X36	Y36	Z36	X37	Y37	Z37	X38	Y38	Z38	X39	Y39	Z39	X40	Y40	Z40	X41	Y41	Z41	X42	Y42	Z42	X43	Y43	Z43	X44	Y44	Z44	X45	Y45	Z45	X46	Y46	Z46	X47	Y47	Z47	X48	Y48	Z48	X49	Y49	Z49	X50	Y50	Z50	X51	Y51	Z51	X52	Y52	Z52	X53	Y53	Z53	X54	Y54	Z54	X55	Y55	Z55	X56	Y56	Z56	X57	Y57	Z57	X58	Y58	Z58	X59	Y59	Z59	X60	Y60	Z60	X61	Y61	Z61	X62	Y62	Z62	X63	Y63	Z63	X64	Y64	Z64	

1163	5.81	-315.0663757324219	1764.216796875	-902.6858520507815	-436.4100036621095	1701.742065429688	-938.163269042969	-477.6445312500001	1657.1943359375	-804.3413696289065	-482.9910278320314	1547.847045898438	-858.774353027344	-509.1490783691407	1221.702270507813	-854.3777465820315	-348.5869445800782	1481.887451171875	-856.1046142578127	-386.6242065429689	1528.97607421875	-1033.460083007813	-459.930877685547	1404.112915039063	-1187.021728515625	-447.4780273437501	1356.59228515625	-1181.842041015625	-486.8250122070314	1354.259765625	-1228.033569335938	-521.3404541015626	1308.576904296875	-1266.391357421875	-585.7718505859376	1313.28076171875	-1225.243774414063	-523.6325683593751	1083.4853515625	-1073.570556640625	-489.3423461914064	1048.678100585938	-1130.725463867188	-464.7786254882814	1089.505126953125	-1041.1142578125	-382.5911254882813	1516.351928710938	-678.9653930664064	-478.9547729492189	1420.292236328125	-522.0823974609376	-457.1693420410157	1375.130859375	-512.9520874023439	-501.6054992675782	1375.83837890625	-472.5256652832032	-514.2598266601564	1315.663208007813	-431.929656982422	-583.3745117187501	1301.224853515625	-480.8612670898439	-451.6143493652345	1115.399780273438	-627.9916992187501	-425.7855529785157	1072.175659179688	-570.3315429687501	-389.2921447753907	1111.605834960938	-667.9191894531251	-337.5388793945313	1037.856323242188	-736.2974243164064	-521.7780151367189	1090.192016601563	-845.345642089844	-529.2307128906251	1061.572509765625	-872.4859619140627	-530.6617431640626	1061.637329101563	-817.4703369140627	-469.2636718750001	801.7561035156252	-1050.730590820313	-431.0145568847657	729.2008056640626	-1070.875122070313	-384.726531982422	734.4514160156251	-1074.389526367188	-451.596649169922	673.6415405273439	-1062.826904296875	-429.4661560058595	543.6629638671876	-1075.1884765625	-418.8706665039064	502.560760498047	-949.2115478515627	-397.9554748535157	316.1339721679688	-1076.1884765625	-473.0541992187501	286.2740173339844	-1114.264526367188	-430.951141357422	275.8781433105469	-1105.416137695313	-420.4713439941407	192.4221801757813	-1085.333129882813	-486.9937438964845	101.29931640625	-1105.909301757813	-442.6165466308595	107.9891128540039	-1027.8017578125	-534.0070190429689	42.70451736450196	-1055.905395507813	-312.3821411132813	60.0070037841797	-1074.882080078125	-322.3514404296876	56.75436782836915	-1120.477416992188	-375.7160949707032	31.21806526184083	-1161.208740234375	-436.047576904297	795.3059082031252	-633.2631835937501	-403.768035888672	738.1516113281251	-618.4184570312501	-370.5953063964844	738.4390258789064	-619.1741943359376	-433.8480224609376	660.3767089843751	-623.7340698242189	-429.6918945312501	527.8215942382814	-611.7719116210939	-392.3347167968751	497.0565795898439	-735.5081176757814	-391.8430480957032	339.6694641113282	-589.6151123046876	-474.2539672851564	271.7750244140626	-574.2562255859376	-427.9737548828126	263.4893188476563	-569.9712524414064	-408.2994995117189	211.7315368652344	-590.1096191406251	-472.0413208007814	101.2541656494141	-565.5597534179689	-433.6563720703126	104.9756088256836	-647.1144409179689	-518.1598510742189	48.72843551635744	-631.1007080078126	-301.0051269531251	57.6690139770508	-582.3740844726564	-313.5731506347657	59.96560668945314	-543.7601318359376	-366.0528869628907	35.8833122253418	-502.6093750000001	-340.3125915527344	1046.829711914063	-962.7280883789065	nan	nan	nan	nan	nan	nan	nan	nan	nan	
1164	5.815	-314.3215026855469	1764.053466796875	-902.8062744140627	-435.9353027343751	1701.779907226563	-938.1402587890627	-477.0647888183595	1657.58056640625	-804.244567871094	-482.5313110351564	1547.988403320313	-858.7195434570315	-508.6919555664064	1221.761840820313	-854.3028564453127	-348.4154968261719	1481.867431640625	-856.0044555664065	-386.2260131835939	1528.744995117188	-1033.374877929688	-459.657928466797	1403.792846679688	-1186.8740234375	-446.8993225097657	1355.843872070313	-1181.507446289063	-486.563446044922	1353.710205078125	-1227.845703125	-520.8865966796876	1308.042602539063	-1266.175659179688	-585.3630371093751	1312.755004882813	-1225.032592773438	-523.2322387695314	1082.97705078125	-1073.259399414063	-489.1468505859376	1048.213623046875	-1130.400146484375	-464.3399047851564	1089.054321289063	-1040.8466796875	-382.4405212402344	1516.434814453125	-678.8424682617189	-478.8490600585939	1420.3447265625	-522.0721435546876	-457.0521545410157	1375.232421875	-512.8809204101564	-501.5733642578126	1375.849365234375	-472.4909973144532	-514.2117919921876	1315.607177734375	-431.897674560547	-583.2276000976564	1301.223510742188	-480.8707580566407	-450.2385559082032	1115.35546875	-627.3457641601564	-425.3509216308595	1072.222045898438	-570.0005493164064	-388.9069213867189	1111.649047851563	-667.6130981445314	-336.8680725097657	1038.072143554688	-735.9713745117189	-521.1390991210939	1090.606689453125	-845.086364746094	-530.0551757812501	1061.496337890625	-872.6024169921877	-530.1922607421876	1061.637329101563	-817.1250610351565	-469.0491027832032	801.8230590820315	-1050.207275390625	-431.090301513672	729.1566772460939	-1070.516235351563	-384.8716125488282	734.3643798828126	-1074.086059570313	-451.803924560547	673.6904907226564	-1062.397583007813	-430.0427856445314	543.7352905273439	-1074.854858398438	-419.4624023437501	502.6360473632814	-948.7713623046877	-398.0928649902345	316.0319519042969	-1075.813842773438	-473.1952209472657	286.3219909667969	-1114.102294921875	-431.1865844726564	276.0476989746094	-1105.12255859375	-420.6436767578126	192.8765716552735	-1085.236450195313	-487.0693359375001	101.407585144043	-1105.6328125	-442.6141357421876	107.952751159668	-1027.635009765625	-533.9508666992189	42.70307922363282	-1055.846801757813	-312.4266967773438	59.97882080078126	-1074.864868164063	-322.2293701171876	56.69983673095705	-1120.521850585938	-375.6826171875001	31.22139739990235	-1161.197875976563	-435.604217529297	795.429382324219	-633.0460815429689	-403.3422241210939	738.0396118164064	-618.3444213867189	-370.1739501953126	738.3651733398439	-619.1350097656251	-434.1085815429689	660.1554565429689	-624.0971679687501	-429.7762145996095	527.8035888671876	-611.9443969726564	-392.7939453125001	497.0870971679689	-735.8563232421876	-391.8950195312501	339.6090698242188	-589.8070068359376	-474.2124328613282	271.6371154785157	-574.4904174804689	-428.0525512695314	263.5129699707032	-570.1163330078126	-408.3242797851564	211.6900787353516	-590.2564086914064	-471.9892578125001	101.3797073364258	-565.8405761718751	-433.6041259765626	104.8573837280274	-647.3682861328126	-517.8150634765626	48.53957366943361	-631.0477294921876	-300.6906127929688	58.19531631469728	-582.3901367187501	-313.3361816406251	59.77185821533205	-543.8845214843751	-365.8092041015626	35.45024108886719	-502.4780883789064	-339.6278076171876	1046.836059570313	-962.485778808594	nan	nan	nan	nan	nan	nan	nan	nan	nan	
1165	5.82	-313.8344726562501	1763.861938476563	-902.9082031250002	-435.4682922363282	1701.86865234375	-938.1297607421877	-476.2965393066407	1657.525146484375	-804.4089355468752	-482.1538696289064	1547.866577148438	-858.6334228515627	-508.3439025878907	1221.746337890625	-854.1473388671877	-348.2398986816407	1481.852661132813	-855.8615722656252	-385.8436279296876	1528.655517578125	-1033.245849609375	-459.2161560058595	1403.474853515625	-1186.688842773438	-446.3970031738282	1355.312866210938	-1181.214599609375	-486.0654602050782	1353.302734375	-1227.50390625	-520.5215454101564	1307.52001953125	-1265.875366210938	-584.8242797851564	1312.161376953125	-1224.77099609375	-522.9835815429689	1082.549438476563	-1072.88623046875	-488.666229248047	1047.830810546875	-1130.01708984375	-463.9845581054689	1088.603637695313	-1040.494018554688	-382.3169555664063	1516.457885742188	-678.7740478515626	-478.7559204101564	1420.383056640625	-522.0079956054689	-456.971160888672	1375.431640625	-512.6555786132814	-501.7305603027345	1375.865234375	-472.6122131347657	-514.2177124023439	1315.76904296875	-431.7968139648439	-583.1430053710939	1301.171752929688	-480.855682373047	-450.6746826171876	1115.521484375	-627.5089111328126	-424.9801635742189	1072.36767578125	-569.5655517578126	-388.5349426269532	1111.815551757813	-667.2788696289064	-336.3134460449219	1038.428466796875	-735.7090454101564	-520.7482299804689	1090.631713867188	-844.783142089844	-528.4779663085939	1061.443359375	-871.944030761719	-529.8277587890626	1061.602661132813	-816.8225708007815	-468.9754943847657	801.9520263671877	-1049.6767578125	-431.2126464843751	729.1964721679689	-1070.044555664063	-384.9938049316407	734.3396606445314	-1073.698852539063	-452.0556640625001	673.8063964843751	-1061.954956054688	-430.5731201171876	543.8809814453126	-1074.519775390625	-419.9286499023439	502.4548339843751	-948.2854614257815	-398.5476379394532	316.4271240234376	-1075.50390625	-473.4127197265626	286.3924255371094	-1113.846435546875	-431.0912475585939	276.3374938964844	-1105.271850585938	-420.707977294922	192.9386138916016	-1085.07861328125	-487.1634826660157	101.4604721069336	-1105.420166015625	-442.6746215820314	107.919174194336	-1027.424926757813	-533.9712524414064	42.78007125854493	-1055.75146484375	-312.2418823242188	59.93349456787111	-1074.828125	-322.2145385742188	56.68611907958986	-1120.549194335938	-375.6940002441407	31.22842597961426	-1161.169921875	-435.1856994628907	795.5019531250002	-632.7833862304689	-402.7296752929689	738.1046752929689	-618.4171752929689	-369.9148864746094	738.1873168945314	-619.1338500976564	-433.4443969726564	660.5183105468751	-623.7775268554689	-429.7422485351564	527.8639526367189	-612.0214233398439	-393.2097778320314	497.2128906250001	-736.2322998046876	-392.549530029297	339.0965270996094	-590.6355590820314	-474.2342224121095	271.6163635253907	-574.5585327148439	-428.0477294921876	263.4177551269532	-570.3330078125001	-408.1052856445314	211.4808807373047	-590.6041259765626	-471.9674682617189	101.5142593383789	-566.0889282226564	-433.4969177246095	104.7509765625	-647.5418701171876	-517.7695922851564	48.49338531494142	-631.1507568359376	-300.6010131835938	58.65925979614259	-582.5216674804689	-313.3576660156251	59.67867279052736	-543.9167480468751	-365.8934631347657	35.9017448425293	-502.6637573242189	-339.1104125976563	1046.843505859375	-962.2092895507815	nan	nan	nan	nan	nan	nan	nan	nan	nan	
1166	5.825	-313.1060485839844	1763.701782226563	-903.0078125000002	-435.0766601562501	1701.888061523438	-938.1077270507815	-475.7859497070314	1657.632080078125	-804.295837402344	-481.7901000976564	1547.872192382813	-858.555847167969	-507.8019104003907	1221.69580078125	-854.0073242187502	-347.9418334960938	1482.165405273438	-855.789245605469	-385.2900695800782	1528.422241210938	-1033.174560546875	-458.7580871582032	1403.062622070313	-1186.578857421875	-445.9161071777345	1354.9638671875	-1180.886962890625	-485.6370544433595	1352.806396484375	-1227.207641601563	-519.9573974609376	1307.01416015625	-1265.45556640625	-584.3399047851564	1311.71728515625	-1224.380615234375	-522.5505371093751	1081.997436523438	-1072.480346679688	-488.0918273925782	1047.232299804688	-1129.519165039063	-463.4819946289064	1088.143188476563	-1040.144287109375	-382.1817321777344	1516.458740234375	-678.7095947265626	-478.7056579589845	1420.447509765625	-521.9176025390626	-456.9525146484376	1375.503540039063	-512.5977783203126	-501.5907592773439	1376.181518554688	-472.3726806640626	-514.2739257812501	1316.017700195313	-431.7372436523439	-583.0419311523439	1301.17236328125	-480.8597412109376	-450.195770263672	1115.673950195313	-627.2673950195314	-424.4039916992189	1072.53466796875	-569.3282470703126	-388.1095581054689	1111.889038085938	-666.9295043945314	-335.8243408203126	1038.699951171875	-735.4047241210939	-520.3836059570314	1090.809814453125	-844.489685058594	-528.0986938476564	1061.272338867188	-871.673034667969	-529.0198974609376	1061.67236328125	-816.4768066406252	-469.0495910644532	802.1069946289065	-1049.169677734375	-431.4280395507814	729.2604370117189	-1069.6142578125	-385.1703491210939	734.3263549804689	-1073.328369140625	-452.2904357910157	673.9124755859376	-1061.457275390625	-431.1566162109376	544.0050048828126	-1074.085327148438	-420.4588623046876	502.5171813964845	-947.7326660156252	-398.9693298339845	316.3831176757813	-1075.218139648438	-473.8467712402345	286.3867797851563	-1113.405029296875	-431.4463195800782	275.7616882324219	-1105.237548828125	-420.9606933593751	192.7834472656251	-1084.948364257813	-487.1767578125001	101.5594253540039	-1105.15771484375	-442.5867614746095	107.6835479736328	-1027.306274414063	-533.9616088867189	42.77683258056641	-1055.72265625	-312.0956726074219	59.94569778442384	-1074.863403320313	-322.1493530273438	56.65136718750001	-1120.518920898438	-375.7200622558594	31.28880691528321	-1161.173217773438	-434.245330810547	795.679626464844	-632.7031860351564	-402.9949645996095	737.3796386718751	-619.3566284179689	-370.2398681640626	736.9498901367189	-619.9257202148439	-433.508758544922	660.1292724609376	-624.1911010742189	-429.6060791015626	527.8546142578126	-612.0742187500001	-393.6326904296876	497.3038024902345	-736.5639038085939	-392.0335083007814	339.7191772460938	-590.3768310546876	-474.1926879882814	271.5435180664063	-574.5797729492189	-427.9885864257814	263.4101562500001	-570.4798583984376	-407.9138488769532	211.0635070800782	-591.0924682617189	-471.9573059082032	101.7191925048828	-566.3396606445314	-433.4815673828126	104.6644134521485	-647.7601928710939	-517.7357788085939	48.51271820068361	-631.1394653320314	-300.5115661621094	58.57805252075197	-582.5904541015626	-313.2220458984376	59.77210998535158	-543.9661254882814	-365.8983764648438	35.85197448730469	-502.6687622070314	-338.5276184082032	1046.86279296875	-962.023132324219	nan	nan	nan	nan	nan	nan	nan	nan	nan	
